<svg xmlns="http://www.w3.org/2000/svg" id="Flat" width="1024" height="1024" fill="#14a3a3" data-vcid="vcr10m2no" style="color:#14a3a3!important" viewBox="0 0 256 256"><style data-vc="1">svg[data-vcid=vcr10m2no] [fill]:not([fill=none]):not([fill=transparent]):not([fill^=url]):not([data-background]):not([data-mvar-background]),svg[data-vcid=vcr10m2no] [style*=fill]:not([style*=&quot;fill:none&quot;]):not([style*=&quot;fill: none&quot;]):not([style*=&quot;fill:transparent&quot;]):not([style*=&quot;fill: transparent&quot;]):not([style*=&quot;fill:url&quot;]):not([style*=&quot;fill: url&quot;]):not([data-background]):not([data-mvar-background]),svg[data-vcid=vcr10m2no] path:not([fill=none]):not([data-background]):not([data-mvar-background]){fill:#14a3a3!important}svg[data-vcid=vcr10m2no] [stroke]:not([stroke=none]):not([stroke^=url]):not([data-background]):not([data-mvar-background]),svg[data-vcid=vcr10m2no] [style*=stroke]:not([style*=&quot;stroke:none&quot;]):not([style*=&quot;stroke: none&quot;]):not([style*=&quot;stroke:url&quot;]):not([style*=&quot;stroke: url&quot;]):not([data-background]):not([data-mvar-background]){stroke:#14a3a3!important}</style><path d="M128 200c-16 0-42.456-.18-72.89-17.751-30.436-17.573-40.284-39.587-43.434-50.855a7.957 7.957 0 0 1 5.68-9.832c7.382-1.892 20.128-3.602 36.526.288-6.652-22.246-3.255-39.508-.415-48.248a8.013 8.013 0 0 1 9.304-5.34 77.46 77.46 0 0 1 31.322 15.127h-.001A107 107 0 0 0 88 120c0 58.182 40 80 40 80m110.644-78.438c-7.381-1.892-20.128-3.602-36.526.288 6.652-22.246 3.255-39.508.415-48.248a8.013 8.013 0 0 0-9.304-5.34 77.46 77.46 0 0 0-31.322 15.127h.001A107 107 0 0 1 168 120c0 58.182-40 80-40 80 16 0 42.456-.18 72.89-17.751 30.436-17.573 40.284-39.587 43.434-50.855a7.957 7.957 0 0 0-5.68-9.832" opacity=".2"/><path d="M250.476 121.29a15.82 15.82 0 0 0-9.844-7.477 80 80 0 0 0-27.957-1.852 85.74 85.74 0 0 0-2.531-40.825A15.96 15.96 0 0 0 191.6 60.43a82.6 82.6 0 0 0-26.158 10.744 94.05 94.05 0 0 0-27.843-34.37 15.94 15.94 0 0 0-19.198 0 94.05 94.05 0 0 0-27.843 34.37A82.6 82.6 0 0 0 64.402 60.43a15.967 15.967 0 0 0-18.546 10.707 85.7 85.7 0 0 0-2.53 40.823 80 80 0 0 0-27.958 1.854 15.957 15.957 0 0 0-11.395 19.738c3.538 12.653 14.367 36.705 47.137 55.626C83.677 207.979 112.457 208 127.946 208l.046.002h.016l.046-.002c15.49 0 44.27-.021 76.836-18.823 32.77-18.92 43.6-42.972 47.137-55.625a15.82 15.82 0 0 0-1.551-12.263m-55.55-45.212c2.739 8.434 5.42 23.521-.3 42.963a8 8 0 0 0-.299 1.017 104.6 104.6 0 0 1-9.542 21.588 119.2 119.2 0 0 1-17.386 23.006C172.466 152.716 176 137.96 176 120a117.3 117.3 0 0 0-4.687-33.572 67.4 67.4 0 0 1 23.613-10.35m-66.898-26.451C137.641 56.802 160 78.023 160 120c0 42.542-22.692 63.592-32 70.437-9.308-6.845-32-27.895-32-70.437 0-41.977 22.359-63.198 32.028-70.373M61.073 76.08a67.4 67.4 0 0 1 23.615 10.348A117.3 117.3 0 0 0 80 120c0 17.96 3.534 32.716 8.6 44.652a119.2 119.2 0 0 1-17.385-23.006 104.6 104.6 0 0 1-9.55-21.614 8 8 0 0 0-.273-.932c-5.743-19.47-3.06-34.579-.319-43.02m-41.731 53.232a66.4 66.4 0 0 1 28.348-.578 123 123 0 0 0 9.669 20.912 138.3 138.3 0 0 0 33.273 38.524 121.8 121.8 0 0 1-31.522-12.85c-27.853-16.082-36.846-35.772-39.768-46.01m177.548 46.01a121.8 121.8 0 0 1-31.521 12.85 138.3 138.3 0 0 0 33.272-38.524 123 123 0 0 0 9.67-20.912 67.45 67.45 0 0 1 28.308.51c-2.883 10.305-11.876 29.995-39.73 46.076"/></svg>